<svg viewBox="0 0 14 16" xmlns="http://www.w3.org/2000/svg"><path id="svg_1" d="m13.0729,5.43259a3.61,3.61 0 0 0 -1.7248,3.0365a3.5132,3.5132 0 0 0 2.1379,3.2223a8.394,8.394 0 0 1 -1.0948,2.2618c-0.6816,0.9812 -1.3943,1.9623 -2.4787,1.9623s-1.3633,-0.63 -2.613,-0.63c-1.2187,0 -1.6525,0.6507 -2.644,0.6507s-1.6834,-0.9089 -2.4787,-2.0243a9.7842,9.7842 0 0 1 -1.6628,-5.2776c0,-3.0984 2.014,-4.7405 3.9969,-4.7405c1.0535,0 1.9314,0.6919 2.5924,0.6919c0.63,0 1.6112,-0.7333 2.8092,-0.7333a3.7579,3.7579 0 0 1 3.1604,1.5802zm-3.7284,-2.8918a3.5615,3.5615 0 0 0 0.8469,-2.22a1.5353,1.5353 0 0 0 -0.031,-0.32a3.5686,3.5686 0 0 0 -2.3445,1.2084a3.4629,3.4629 0 0 0 -0.8779,2.1585a1.419,1.419 0 0 0 0.031,0.2892a1.19,1.19 0 0 0 0.2169,0.0207a3.0935,3.0935 0 0 0 2.1586,-1.1368z"/></svg>