<svg xmlns="http://www.w3.org/2000/svg" xmlns:xlink="http://www.w3.org/1999/xlink" viewBox="0 0 216 256"><defs><linearGradient id="m"><stop offset="0"/><stop offset="1" stop-opacity=".3"/></linearGradient><linearGradient id="n"><stop offset="0" stop-color="#110800"/><stop offset=".6" stop-color="#a65a00" stop-opacity=".8"/><stop offset="1" stop-color="#ff921e" stop-opacity="0"/></linearGradient><linearGradient id="o"><stop offset="0" stop-color="#7c7c7c"/><stop offset="1" stop-color="#7c7c7c" stop-opacity=".3"/></linearGradient><linearGradient id="f"><stop offset="0" stop-color="#7c7c7c"/><stop offset="1" stop-color="#7c7c7c" stop-opacity=".3"/></linearGradient><linearGradient id="a"><stop offset="0" stop-color="#b98309"/><stop offset="1" stop-color="#382605"/></linearGradient><linearGradient id="b"><stop offset="0" stop-color="#ebc40c"/><stop offset="1" stop-color="#ebc40c" stop-opacity="0"/></linearGradient><linearGradient id="c"><stop offset="0"/><stop offset="1" stop-opacity="0"/></linearGradient><linearGradient id="d"><stop offset="0" stop-color="#3e2a06"/><stop offset="1" stop-color="#ad780a"/></linearGradient><linearGradient id="e"><stop offset="0" stop-color="#f3cd0c"/><stop offset="1" stop-color="#f3cd0c" stop-opacity="0"/></linearGradient><linearGradient id="p"><stop offset="0" stop-color="#fefefc"/><stop offset=".8" stop-color="#fefefc"/><stop offset="1" stop-color="#d4d4d4"/></linearGradient><linearGradient id="g"><stop offset="0" stop-color="#757574" stop-opacity="0"/><stop offset=".3" stop-color="#757574"/><stop offset=".5" stop-color="#757574"/><stop offset="1" stop-color="#757574" stop-opacity="0"/></linearGradient><linearGradient id="i"><stop offset="0" stop-color="#949494" stop-opacity=".4"/><stop offset=".5" stop-color="#949494"/><stop offset="1" stop-color="#949494" stop-opacity=".4"/></linearGradient><linearGradient id="q"><stop offset="0" stop-color="#c8c8c8"/><stop offset="1" stop-color="#797978"/></linearGradient><linearGradient id="j"><stop offset="0" stop-color="#747474"/><stop offset=".1" stop-color="#8c8c8c"/><stop offset=".3" stop-color="#a4a4a4"/><stop offset=".5" stop-color="#d4d4d4"/><stop offset=".6" stop-color="#d4d4d4"/><stop offset="1" stop-color="#7c7c7c"/></linearGradient><linearGradient id="h"><stop offset="0" stop-color="#646464" stop-opacity="0"/><stop offset=".3" stop-color="#646464" stop-opacity=".6"/><stop offset=".5" stop-color="#646464"/><stop offset=".7" stop-color="#646464" stop-opacity=".3"/><stop offset="1" stop-color="#646464" stop-opacity="0"/></linearGradient><linearGradient id="r"><stop offset="0" stop-color="#020204"/><stop offset=".7" stop-color="#020204"/><stop offset="1" stop-color="#5c5c5c"/></linearGradient><linearGradient id="s"><stop offset="0" stop-color="#d2940a"/><stop offset=".8" stop-color="#d89c08"/><stop offset=".9" stop-color="#b67e07"/><stop offset="1" stop-color="#946106"/></linearGradient><linearGradient id="k"><stop offset="0" stop-color="#ad780a"/><stop offset=".1" stop-color="#d89e08"/><stop offset=".3" stop-color="#edb80b"/><stop offset=".4" stop-color="#ebc80d"/><stop offset=".5" stop-color="#f5d838"/><stop offset=".8" stop-color="#f6d811"/><stop offset="1" stop-color="#f5cd31"/></linearGradient><linearGradient id="t"><stop offset="0" stop-color="#3a2903"/><stop offset=".6" stop-color="#735208"/><stop offset="1" stop-color="#ac8c04"/></linearGradient><linearGradient id="l"><stop offset="0" stop-color="#f5ce2d"/><stop offset="1" stop-color="#d79b08"/></linearGradient><linearGradient xlink:href="#a" id="V" x1="23.2" x2="64.3" y1="193" y2="262" gradientUnits="userSpaceOnUse" href="#a"/><linearGradient xlink:href="#b" id="Z" x1="64.5" x2="77.4" y1="210.8" y2="235.2" gradientUnits="userSpaceOnUse" href="#b"/><linearGradient xlink:href="#c" id="ab" x1="146.9" x2="150.2" y1="212" y2="235.7" gradientUnits="userSpaceOnUse" href="#c"/><linearGradient xlink:href="#d" id="ad" x1="151.5" x2="192.9" y1="253" y2="185.8" gradientUnits="userSpaceOnUse" href="#d"/><linearGradient xlink:href="#e" id="ah" x1="162.8" x2="161.6" y1="180.7" y2="191.6" gradientUnits="userSpaceOnUse" href="#e"/><linearGradient xlink:href="#f" id="ar" x1="165.7" x2="168.3" y1="173.6" y2="173.5" gradientUnits="userSpaceOnUse" href="#f"/><linearGradient xlink:href="#g" id="at" x1="84.3" x2="89.3" y1="46.6" y2="55.6" gradientUnits="userSpaceOnUse" href="#g"/><linearGradient xlink:href="#h" id="ay" x1="83.6" x2="94.5" y1="32.5" y2="43.6" gradientUnits="userSpaceOnUse" href="#h"/><linearGradient xlink:href="#i" id="aB" x1="117.9" x2="123.7" y1="47.3" y2="54.1" gradientUnits="userSpaceOnUse" href="#i"/><linearGradient xlink:href="#j" id="aE" x1="112.9" x2="131.3" y1="36.2" y2="47" gradientUnits="userSpaceOnUse" href="#j"/><linearGradient xlink:href="#h" id="aG" x1="119.2" x2="131.4" y1="31.6" y2="43.1" gradientUnits="userSpaceOnUse" href="#h"/><linearGradient xlink:href="#k" id="aP" x1="78.1" x2="126.8" y1="69.3" y2="68.9" gradientUnits="userSpaceOnUse" href="#k"/><linearGradient xlink:href="#l" id="aW" x1="126.7" x2="126.7" y1="67.5" y2="71.1" gradientUnits="userSpaceOnUse" href="#l"/><filter id="I"><feGaussianBlur stdDeviation="0.64 0.55"/></filter><filter id="K"><feGaussianBlur stdDeviation="1"/></filter><filter id="M"><feGaussianBlur stdDeviation=".7"/></filter><filter id="N" width="2.6" height="1.4" x="-.8" y="-.2"><feGaussianBlur stdDeviation="1.3"/></filter><filter id="O" width="2.6" height="2" x="-.8" y="-.5"><feGaussianBlur stdDeviation="1.78 2.19"/></filter><filter id="P" width="1.6" height="1.6" x="-.3" y="-.3"><feGaussianBlur stdDeviation="1.7"/></filter><filter id="Q" width="1.4" height="1.4" x="-.2" y="-.2"><feGaussianBlur stdDeviation=".8"/></filter><filter id="S" width="1.4" height="1.4" x="-.2" y="-.2"><feGaussianBlur stdDeviation="1"/></filter><filter id="U" width="1.4" height="1.4" x="-.2" y="-.2"><feGaussianBlur stdDeviation="1.19 1.17"/></filter><filter id="X" width="1.4" height="1.4" x="-.2" y="-.2"><feGaussianBlur stdDeviation="3.4"/></filter><filter id="Y"><feGaussianBlur stdDeviation="2.1 2.06"/></filter><filter id="aa"><feGaussianBlur stdDeviation=".3"/></filter><filter id="ac"><feGaussianBlur stdDeviation="1.95 1.9"/></filter><filter id="af" width="1.4" height="1.4" x="-.2" y="-.2"><feGaussianBlur stdDeviation="4.1"/></filter><filter id="ag" width="1.4" height="1.4" x="-.2" y="-.2"><feGaussianBlur stdDeviation="3.12 3.37"/></filter><filter id="ai" width="1.4" height="1.4" x="-.2" y="-.2"><feGaussianBlur stdDeviation=".4"/></filter><filter id="ak" width="1.6" height="1.6" x="-.3" y="-.3"><feGaussianBlur stdDeviation="2.5"/></filter><filter id="am" width="1.4" height="1.4" x="-.2" y="-.2"><feGaussianBlur stdDeviation="1.12 0.81"/></filter><filter id="aq" width="1.4" height="1.4" x="-.2" y="-.2"><feGaussianBlur stdDeviation=".9"/></filter><filter id="av" width="1.6" height="1.6" x="-.3" y="-.3"><feGaussianBlur stdDeviation=".4"/></filter><filter id="az"><feGaussianBlur stdDeviation=".1"/></filter><filter id="aD" width="1.4" height="1.4" x="-.2" y="-.2"><feGaussianBlur stdDeviation=".5"/></filter><filter id="aH"><feGaussianBlur stdDeviation=".1"/></filter><filter id="aI" width="1.4" height="1.4" x="-.2" y="-.2"><feGaussianBlur stdDeviation="1.8"/></filter><filter id="aJ"><feGaussianBlur stdDeviation="0.8 0.74"/></filter><filter id="aN" width="1.4" height="1.4" x="-.2" y="-.2"><feGaussianBlur stdDeviation=".8"/></filter><filter id="aO"><feGaussianBlur stdDeviation=".7"/></filter><filter id="aR" width="1.4" height="1.4" x="-.2" y="-.2"><feGaussianBlur stdDeviation=".7"/></filter><filter id="aT" width="1.4" height="1.4" x="-.2" y="-.2"><feGaussianBlur stdDeviation=".1"/></filter><filter id="aV"><feGaussianBlur stdDeviation=".1"/></filter><filter id="aY" width="1.4" height="1.4" x="-.2" y="-.2"><feGaussianBlur stdDeviation=".2"/></filter><radialGradient xlink:href="#m" id="G" cx="0" cy="0" r="1" gradientTransform="matrix(19 0 0 18 61 121)" gradientUnits="userSpaceOnUse" href="#m"/><radialGradient xlink:href="#m" id="J" cx="0" cy="0" r="1" gradientTransform="matrix(24 0 0 18 126 132)" gradientUnits="userSpaceOnUse" href="#m"/><radialGradient xlink:href="#m" id="L" cx="0" cy="0" r="1" gradientTransform="matrix(9 0 0 10 94 127)" gradientUnits="userSpaceOnUse" href="#m"/><radialGradient xlink:href="#n" id="aj" cx="0" cy="0" r="1" gradientTransform="matrix(19 5 -5 20 170 195)" gradientUnits="userSpaceOnUse" href="#n"/><radialGradient xlink:href="#n" id="al" cx="0" cy="0" r="1" gradientTransform="matrix(20 -1 1 15 170 190)" gradientUnits="userSpaceOnUse" href="#n"/><radialGradient xlink:href="#o" id="ao" cx="0" cy="0" r="1" gradientTransform="matrix(6 3 -1 3 185 177)" gradientUnits="userSpaceOnUse" href="#o"/><radialGradient xlink:href="#p" id="as" cx="0" cy="0" r="1" gradientTransform="matrix(10 0 0 16 86 51)" gradientUnits="userSpaceOnUse" href="#p"/><radialGradient xlink:href="#q" id="aw" cx="0" cy="0" r="1" gradientTransform="matrix(6 -1 1 6 85 44)" gradientUnits="userSpaceOnUse" href="#q"/><radialGradient xlink:href="#p" id="aA" cx="0" cy="0" r="1" gradientTransform="matrix(14 0 0 16 118 51)" gradientUnits="userSpaceOnUse" href="#p"/><radialGradient xlink:href="#r" id="aK" cx="0" cy="0" r="1" gradientTransform="matrix(9 -7 6 8 98 60)" gradientUnits="userSpaceOnUse" href="#r"/><radialGradient xlink:href="#s" id="aL" cx="0" cy="0" r="1" gradientTransform="matrix(25 -10 7 18 110 71)" gradientUnits="userSpaceOnUse" href="#s"/><radialGradient xlink:href="#t" id="aS" cx="0" cy="0" r="1" gradientTransform="translate(92 60)" gradientUnits="userSpaceOnUse" href="#t"/><radialGradient xlink:href="#t" id="aU" cx="0" cy="0" r="1" gradientTransform="matrix(3 0 0 2 105 60)" gradientUnits="userSpaceOnUse" href="#t"/><clipPath id="H"><use xlink:href="#u" href="#u"/></clipPath><clipPath id="R"><use xlink:href="#v" href="#v"/></clipPath><clipPath id="T"><use xlink:href="#w" href="#w"/></clipPath><clipPath id="W"><use xlink:href="#x" href="#x"/></clipPath><clipPath id="ae"><use xlink:href="#y" href="#y"/></clipPath><clipPath id="ap"><use xlink:href="#z" href="#z"/></clipPath><clipPath id="ax"><use xlink:href="#A" href="#A"/></clipPath><clipPath id="au"><use xlink:href="#B" href="#B"/></clipPath><clipPath id="aF"><use xlink:href="#C" href="#C"/></clipPath><clipPath id="aC"><use xlink:href="#D" href="#D"/></clipPath><clipPath id="aM"><use xlink:href="#E" href="#E"/></clipPath><clipPath id="aQ"><use xlink:href="#F" href="#F"/></clipPath><clipPath id="aX"><use xlink:href="#E" href="#E"/><use xlink:href="#F" href="#F"/></clipPath></defs><path id="u" fill="#020204" d="M107 0c-6 0-12 1-18 4-5 3-10 8-13 14s-4 12-4 19c-1 13 0 27 1 40v10c-1 8-9 13-12 21-5 8-6 17-10 25l-10 23c-3 11-5 23-2 35 2 8 6 16 12 23l-3 5c-2 4-6 8-7 13l-1 8c1 2 2 5 4 6l5 3h5c6 0 12-2 18-4l11-2a120 120 0 0 1 53 2c6 2 12 4 19 4h5l5-3c2-1 3-4 4-6l-1-8-7-13-3-6c8-8 14-19 18-30 4-12 4-25 3-38-2-13-6-26-11-37-7-15-13-20-17-33-4-14-1-31-4-44a44 44 0 0 0-16-23c-7-5-15-8-24-8z"/><path fill="#fdfdfb" d="m83 74-2 4v4l-1 9-4 8c-4 4-7 9-8 14l-1 9a103 103 0 0 0-16 44c-1 11 0 23 5 33a55 55 0 0 0 24 27c13 7 30 7 43 0l17-14 10-11c4-7 6-16 7-25 2-15 2-31-5-45-2-5-5-9-9-13-1-7-3-14-6-20l-6-13-2-5-4-5c-1-2-3-3-5-3l-6-2-12 1-10-1-5 1-4 3z"/><path fill="url(#G)" d="M69 115c1 1-1 6 20 3l-8 1-14 7-9 9 7-13v-7l4-9s-2 7 0 9z" clip-path="url(#H)" filter="url(#I)" opacity=".3"/><path fill="url(#J)" d="M134 114c-4 3-6 3-11 3h-19l6 1 19 4 10 4 11 10-1-7c-2-3-6-7-8-12l-2-13s-1 7-5 10z" clip-path="url(#H)" filter="url(#K)" opacity=".4"/><path fill="url(#L)" d="M95 108a59 59 0 0 1-1 5l-1 2-1 1-6 1 2 1h2l1 1 1 1 1 3v5a14 14 0 0 1 3-8l2-1 6-2c-2 0-4 0-6-2l-2-2-1-5z" clip-path="url(#H)" filter="url(#M)" opacity=".2"/><path d="m90 137-2 12-1 18v15l2 7 1-3-1-12 1-21v-16z" clip-path="url(#H)" filter="url(#N)" opacity=".1"/><path fill="#7c7c7c" d="M160 131c1 0 7 5 7 7-1 2-3 1-4 1s-4 2-5 1l2-5v-4z" clip-path="url(#H)" filter="url(#O)" opacity=".8"/><path fill="#7c7c7c" d="M122 11c-3 2-2 4-1 6s-2 7-2 7l8-4c2-3 7 3 6 2 0-2-9-12-11-11z" clip-path="url(#H)" filter="url(#P)"/><path fill="#838384" d="M138 77c-2 1 1 4 2 7 1 2 3 4 6 4l2-4c0-4-3-4-5-5-1-1-3-4-5-2z" clip-path="url(#H)" filter="url(#Q)"/><path id="v" fill="#020204" d="M64 101c-6 7-12 14-16 21l-4 12-5 13-6 12-3 9v7l3 7a69 69 0 0 0 34 32l7 2 4-1 3-3 1-4-2-5-8-8a283 283 0 0 1-24-22c-2-2-2-4-3-7-1-6-1-13 2-19l3-7c1-4 3-8 6-11l9-13 4-14 2-10-7 9z"/><path fill="#7c7c7c" d="m57 126-5 6-6 13-2 9v5l-1 5-3 3 4 3 3 5 2 3 4 1 5-1c-2-16 0-32 4-47l1-3-1-3a3 3 0 0 0-3-1 3 3 0 0 0-2 2z" clip-path="url(#R)" filter="url(#S)" opacity=".9"/><path id="w" fill="#020204" d="M163 127c5 4 8 11 9 17s1 11-1 16l-4 15-2 6 1 6c1 2 3 4 5 4h7l9-2c4-4 5-10 7-16 1-6 0-12-1-18a121 121 0 0 0-15-40l-12-13-3-5-4-5c-1-2-3-3-5-3l-6-1c-3 1-5 3-6 5l-1 8 4 10 8 9 10 7z"/><path fill="#838384" d="m150 119 2 1 8 8c5 5 11 12 12 18s-1 9-2 15-5 14-7 20c-1 3 2 2 1 4v4-1l3-10 6-18c2-6 2-11 1-16-1-7-5-13-11-18l-13-7z" clip-path="url(#T)" filter="url(#U)"/><path id="x" fill="url(#V)" d="M35 175h4l4 2c3 1 5 4 7 6l11 17c3 5 5 10 9 14l6 9c3 3 4 6 5 10 2 4 1 9-1 13-1 3-4 6-7 8l-9 2c-5 0-10-3-15-5-10-4-21-5-31-8l-10-3-4-1-3-3-1-3 1-4 3-6 1-11-1-11v-5l2-4 4-2h9l5-2 3-3 2-3 3-4 3-3z"/><path fill="#d99a03" d="m37 178 4-1 4 2 5 6 10 17 7 13 7 8 4 8c1 4 1 9-1 12l-6 7-9 2c-5 0-9-3-14-4l-27-6-9-3-5-1-3-3-1-3 1-3 3-6 1-10-1-10v-4l2-4 4-2h10l4-1c2-1 3-2 3-4l2-4 2-4 3-2z" clip-path="url(#W)" filter="url(#X)"/><path fill="#f5bd0c" d="m36 175 4-1 4 2 4 6 9 17 8 11c3 5 6 10 7 16 1 4 1 8-1 12-1 2-3 4-6 5-2 2-5 2-8 2-4 0-8-3-12-4-7-3-15-3-22-5l-9-3-4-1-4-2v-3l1-3 2-5v-9l-2-8v-4l2-3c1-2 3-2 5-2h10l4-1 3-4 1-5 1-5 3-3z" clip-path="url(#W)" filter="url(#Y)"/><path fill="url(#Z)" d="m51 188 6 13 7 11c0 2 3 4 5 8l5 9-4-10-4-7-6-10-9-14z" clip-path="url(#W)" filter="url(#aa)"/><path fill="url(#ab)" d="m199 216-2 3-7 7-13 9-7 8-6 7-8 5h-11l-6-4-2-7 1-13 1-11-1-20v-4l1-3 3-1 3-1h7l5 1 7-1 8-2h4l3 1 1 2 1 3 1 4c0 2 1 3 3 4l4 4 5 2 2 2 2 1 1 4z" clip-path="url(#H)" filter="url(#ac)" opacity=".2"/><path id="y" fill="url(#ad)" d="M213 223c-2 3-5 4-8 6l-16 8-9 8-8 7a22 22 0 0 1-12 4l-10-2-7-5-1-9 1-16 2-12 1-24v-4l1-4 4-1h3l9 2 5 1c3 1 6 2 9 1l10-1h4l3 2 2 3 1 5v4l3 6 5 4 6 5 2 1 2 3a5 5 0 0 1 1 4l-3 4z"/><path fill="#cd8907" d="m213 216-2 4-8 5-14 8-9 7-7 6c-2 2-5 3-8 3-4 1-8 0-12-1l-6-5-2-8 2-14 2-11v-25c0-2 1-3 2-3l3-2 3 1 8 1 5 1c2 1 5 2 8 1l9-1h3l4 2 1 3 1 4v4l1 3 2 3 5 5 7 4 2 1v4z" clip-path="url(#ae)" filter="url(#af)"/><path fill="#f5c021" d="m213 215-2 3c-2 3-5 5-8 6l-16 4-8 5-7 4a35 35 0 0 1-14 3l-5-2c-1 0-3-1-3-3l-1-5 1-13-1-12v-22l-1-4v-2l1-1 2-1h1l3 1 8 1 5 2 8 1 9-2 4 1 3 2 2 2 1 4v5l1 1 1 2 3 5 4 5 7 4 1 2a4 4 0 0 1 1 4z" clip-path="url(#ae)" filter="url(#ag)"/><path fill="url(#ah)" d="M148 182c3-1 5 1 7 3h5l8 1 16-2c3-1 5-1 8 1 1 0 2 3 3 2-1-3-3-5-5-6h-7l-19-1h-13c-2-1-3 1-4 1l1 1z" clip-path="url(#ae)" filter="url(#ai)"/><path fill="url(#aj)" d="m185 188-2-2-3-1h-6l-6-1h-5l-5 4-1 4v9l2 4 4 3h9a24 24 0 0 0 14-16v-2l-1-2z" clip-path="url(#ae)" filter="url(#ak)" opacity=".3"/><path fill="url(#al)" d="m185 185-2-2h-9l-6-1h-5l-5 3-1 3v7l2 2 4 3h9c5-2 9-5 12-8l2-4v-2l-1-1z" clip-path="url(#ae)" filter="url(#am)" opacity=".3"/><path id="z" fill="#020204" d="m190 179-2-3-3-1-6-2-5-1h-6l-5 2-3 5-1 9 2 6 5 3h9c5-2 10-5 13-10l2-4v-4z"/><defs><path id="an" d="M169 171h-2l-7 5-1 6 1-4c1-2 3-4 6-4h5l4 1 7 2 1 1v4l-1 2-2 1 6-2 2-2 1-3-1-2-2-1-7-3a91 91 0 0 0-10-1z"/></defs><use xlink:href="#an" fill="url(#ao)" clip-path="url(#ap)" filter="url(#aq)" href="#an"/><use xlink:href="#an" fill="url(#ar)" clip-path="url(#ap)" filter="url(#aq)" href="#an"/><path id="A" fill="url(#as)" d="m84 38-4 2-2 4-1 9 2 8 2 4 4 2h3l4-2 3-5v-6l-1-7-3-6-3-2-4-1z"/><path id="B" fill="#020204" d="M81 51v6l2 3 2 2h3l2-1 1-2-1-7-2-4-2-2-3 1-1 1-1 3z"/><path fill="url(#at)" d="m85 50 1 1 1 1 1 3h1v-4l-2-2h-2v1z" clip-path="url(#au)" filter="url(#av)"/><path fill="url(#aw)" d="m81 44 8-1 8 2 5 2c2 0 4 2 5 3v1l1 1h2v-1l-4-7-2-4c-2-4-6-8-11-10l-14-4a75 75 0 0 0-25 4l-3 2-2 4 1 3 2 4 5 5 6 4 3 2h4l3-2 3-2 5-6z" clip-path="url(#ax)"/><path fill="url(#ay)" d="m91 37 5 7c-1-3-2-6-4-7l-3-3-4-1h-1s-1 0 0 0l3 1 4 3z" filter="url(#az)"/><path id="C" fill="url(#aA)" d="M112 38c-3 2-5 4-6 7s-1 7 1 11c1 3 3 7 6 9l5 2 6-1 4-5 2-7-1-8c-1-3-3-6-6-8l-4-2a9 9 0 0 0-7 2z"/><path id="D" fill="#020204" d="M117 46h-2l-2 2-2 5 1 4 2 4 4 1a6 6 0 0 0 6-3l1-4-1-5-4-4h-3z"/><path fill="url(#aB)" d="M123 53c1-1-1-3-2-4l-4-1 2 3c1 1 3 3 4 2z" clip-path="url(#aC)" filter="url(#aD)"/><path fill="url(#aE)" d="m103 47 7-4c5-1 11-1 15 2l5 4 5 3h3l2-1 2-2c1-2 2-4 1-5 0-4-2-7-4-11l-2-3c-2-3-5-4-8-6l-11-2h-4l-6 2h-2l-2 1-2 4v3l1 8-1 5 1 2z" clip-path="url(#aF)"/><path fill="url(#aG)" d="m120 31-1 2 5 2 7 8 1-1c-2-3-4-7-7-9l-5-2z" filter="url(#aH)"/><path fill-opacity=".3" d="M81 89a24 24 0 0 0 12 13l4 1 4-1 4-2 7-4 7-5 3-3 4-1h3l2 1 1-1 1-2-1-2-2-3v-3l-1-4-1-2h-15l-8 1H95l-4 1H80l-2 2-1 1 1 1 1 3 2 9z" clip-path="url(#H)" filter="url(#aI)"/><path d="m77 77 8 7 6 6 6 2 8-1 7-2c4-3 7-6 11-7l3-1 2-2 1-3 1-3-1-2-1-2-3-1-5 1h-7l-8 1-10-1h-4l-4 2-3 2-2 1-2 1h-1l-2 1v1z" clip-path="url(#H)" filter="url(#aJ)" opacity=".3"/><path fill="url(#aK)" d="m92 59 4-6 2-2 4-1 3 2 2 3 2 3 3 2 1 2 1 1v2l-1 2-4 2-8-1-8 1-3-1-2-1v-4l1-2 3-2z"/><path id="E" fill="url(#aL)" d="M77 75v1l1 1h1l6 5c2 3 3 6 6 8l6 2 8-1 7-3 11-8 3-1 2-2 1-3 1-3-1-3-1-2h-15l-8 1H91l-4 1-3 3-2 1-2 1h-2v1l-1 1z"/><path fill="#d9b30d" d="M90 79a6 6 0 0 0 4 6h5l2-2 1-2v-1l-1-2h-2l-4-1c-2 0-5 0-5 2z" clip-path="url(#aM)" filter="url(#aN)"/><path fill="#604405" d="m84 68-3 2-1 2-1 1v3l1 1h1l2 1 2 3 8 2 9-1 6-2 9-5 3-3 4-2h1v-1l-1-1-5-2h-5l-4-1-5-1a31 31 0 0 0-21 4z" clip-path="url(#aM)" filter="url(#aO)"/><path id="F" fill="url(#aP)" d="m84 64-4 4-2 3-1 3v2h2l3 1 3 3 8 2 9-1 6-2a38 38 0 0 0 12-8l2-1 1-1h6v-2l-2-2-3-1-10-3-4-3-5-2c-3-1-7 0-11 1s-7 4-10 7z"/><path fill="#f6da4a" d="M109 65v-1h-1l-2 1-4 4-3 6v2l1 1h1l2-2c3-2 6-5 7-9v-1l-1-1z" clip-path="url(#aQ)" filter="url(#aR)"/><path fill="url(#aS)" d="m93 59-2 2h1l1-1v-1z" filter="url(#aT)" opacity=".8"/><path fill="url(#aU)" d="m103 59 1 1 2 1 1-1-1-1h-3z" filter="url(#aV)" opacity=".8"/><path fill="url(#aW)" d="M129 69a2 3 17 0 1-3 3 2 3 17 0 1-2-3 2 3 17 0 1 3-3 2 3 17 0 1 2 3z" clip-path="url(#aX)" filter="url(#aY)"/></svg>